<svg xmlns="http://www.w3.org/2000/svg" xmlns:xlink="http://www.w3.org/1999/xlink" version="1.1" x="0px" y="0px" viewBox="0 0 100 125" enable-background="new 0 0 100 100" xml:space="preserve"><path d="M57.334,58.94c-0.563-0.583-1.262-1.102-2.088-1.554c-0.824-0.452-1.961-0.943-3.41-1.479  c-1.44-0.521-2.475-1.095-3.078-1.688c-0.604-0.596-0.901-1.385-0.901-2.368c0-1.097,0.307-1.939,0.916-2.528  c0.604-0.589,1.459-0.883,2.545-0.883c1.1,0,1.967,0.41,2.604,1.229c0.646,0.813,0.959,1.938,0.959,3.355h4.107  c0-2.218-0.539-4.02-1.613-5.396c-1.063-1.391-2.596-2.229-4.563-2.504v-3.731h-2.721v3.7c-1.957,0.226-3.509,0.939-4.646,2.152  c-1.146,1.212-1.715,2.758-1.715,4.636c0,2.771,1.313,4.854,3.953,6.271c0.793,0.438,1.896,0.896,3.326,1.399  c1.426,0.503,2.438,1.063,3.055,1.694c0.611,0.631,0.916,1.426,0.916,2.387c0,1.023-0.336,1.854-1.01,2.479  c-0.674,0.621-1.654,0.938-2.943,0.938c-1.313,0-2.328-0.396-3.047-1.171c-0.719-0.78-1.078-1.894-1.078-3.313h-4.123  c0,2.239,0.605,4.038,1.814,5.396c1.198,1.354,2.926,2.157,5.168,2.403v3.295h2.688v-3.313c2.101-0.214,3.729-0.916,4.896-2.104  c1.171-1.188,1.757-2.731,1.757-4.646c0-1.021-0.152-1.906-0.457-2.664C58.338,60.192,57.899,59.522,57.334,58.94z M70.455,32.944  c-0.015-0.314,0.092-0.467,0.157-0.538c0.06-0.063,0.24-0.253,0.829-0.253c0.456,0,0.984,0.105,1.636,0.235  c0.612,0.124,1.245,0.253,1.812,0.253c0.257,0,0.489-0.027,0.772-0.103c0.626-0.19,1.19-0.571,1.812-1.012  c0.689-0.479,1.34-0.932,1.976-0.932c0.641,0,1.323,0.477,1.975,0.932c0.622,0.441,1.188,0.822,1.813,1.012  c0.661,0.203,1.695,0.03,2.602-0.154c0.518-0.112,1.112-0.231,1.608-0.231c0.594,0,0.766,0.184,0.81,0.23  c0.085,0.093,0.196,0.252,0.183,0.561c-0.032,0.72-0.818,2.218-2.85,4.308h-12.29C71.271,35.168,70.487,33.668,70.455,32.944z   M37.799,26.431c-0.021-0.479,0.104-0.858,0.369-1.145c0.121-0.128,0.491-0.518,1.535-0.518c0.668,0,1.408,0.146,2.192,0.302  l0.154,0.031c0.812,0.165,1.651,0.336,2.371,0.336c0.296,0,0.564-0.031,0.894-0.115c0.771-0.233,1.508-0.73,2.32-1.305  c0.975-0.679,1.981-1.381,3.027-1.381c1.053,0,2.058,0.703,3.024,1.38c0.815,0.575,1.553,1.07,2.345,1.312  c0.802,0.229,2.048,0.016,3.259-0.23c0.738-0.159,1.588-0.329,2.319-0.329c1.052,0,1.41,0.383,1.519,0.499  c0.284,0.31,0.412,0.689,0.392,1.162c-0.063,1.422-1.638,3.803-4.218,6.426H42.01C39.435,30.239,37.862,27.858,37.799,26.431z   M12.871,32.944c-0.014-0.314,0.092-0.467,0.157-0.538c0.061-0.063,0.24-0.253,0.83-0.253c0.455,0,0.984,0.105,1.635,0.235  c0.613,0.124,1.246,0.253,1.813,0.253c0.257,0,0.489-0.027,0.772-0.103c0.626-0.19,1.19-0.571,1.812-1.012  c0.688-0.479,1.34-0.932,1.975-0.932c0.642,0,1.323,0.477,1.975,0.932c0.623,0.441,1.189,0.822,1.813,1.012  c0.662,0.203,1.695,0.03,2.602-0.154c0.519-0.112,1.113-0.231,1.609-0.231c0.594,0,0.765,0.184,0.809,0.23  c0.086,0.093,0.196,0.252,0.183,0.561c-0.032,0.72-0.818,2.218-2.849,4.308H15.714C13.688,35.168,12.903,33.668,12.871,32.944z   M25.348,70.685c-1.121,0.039-2.275,0.062-3.497,0.062c-9.601,0-16.396-0.685-16.396-9.549c0-6.141,4.159-16.109,10.167-20.945  h12.472c1.197,0.964,2.315,2.135,3.348,3.43c-4.252,7.077-6.797,15.331-6.797,21.397C24.644,67.211,24.894,69.064,25.348,70.685z   M50.643,78.704c-10.78,0-22.999,0-22.999-13.625c0-8.581,5.846-22.548,14.274-29.224h17.477  c8.439,6.684,14.27,20.647,14.248,29.224C73.643,78.704,61.424,78.704,50.643,78.704z M79.434,70.746  c-1.221,0-2.375-0.022-3.494-0.061c0.453-1.619,0.703-3.473,0.703-5.603c0.015-6.065-2.521-14.325-6.774-21.406  c1.032-1.294,2.148-2.463,3.344-3.425h12.471c6.016,4.843,10.164,14.809,10.149,20.945C95.832,70.062,89.035,70.746,79.434,70.746z"/></svg>