<svg xmlns="http://www.w3.org/2000/svg" xmlns:xlink="http://www.w3.org/1999/xlink" version="1.1" x="0px" y="0px" viewBox="0 0 512 640" style="enable-background:new 0 0 512 512;" xml:space="preserve"><g><path d="M456.846,119.138h-73.75v-18.911c0-3.423-2.787-6.203-6.21-6.203h-9.088V61.216c0-16.222-13.193-29.415-29.415-29.415   H173.836c-16.222,0-29.415,13.193-29.415,29.415v32.808h-9.308c-3.423,0-6.203,2.779-6.203,6.203v18.911H55.154   c-13.564,0-24.598,11.034-24.598,24.598v102.438c0,3.423,2.779,6.203,6.203,6.203h8.346v207.375   c0,11.269,9.164,20.448,20.433,20.448h380.919c11.269,0,20.448-9.179,20.448-20.448V252.376h8.331c3.423,0,6.21-2.779,6.21-6.203   V143.736C481.445,130.172,470.403,119.138,456.846,119.138z M370.676,119.138h-55.225V106.43h9.573h36.564h9.088V119.138z    M208.962,119.138v-18.911c0-3.423-2.779-6.203-6.203-6.203h-9.233l0.266-13.662l125.021,0.386v13.276h-9.573   c-3.423,0-6.21,2.779-6.21,6.203v18.911H208.962z M156.826,61.216c0-9.376,7.634-17.01,17.01-17.01h164.547   c9.376,0,16.995,7.634,16.995,17.01v32.808h-24.144V80.748c0-7.051-5.741-12.791-12.799-12.791H193.792   c-7.051,0-12.791,5.741-12.791,12.791v13.276h-24.174V61.216z M141.316,106.43h9.308h36.579h9.353v12.708h-55.24V106.43z    M454.483,459.751c0,4.423-3.605,8.028-8.028,8.028H65.537c-4.423,0-8.028-3.605-8.028-8.028V252.376h396.974V459.751z    M469.024,239.971H42.961v-96.235c0-6.725,5.468-12.193,12.193-12.193h79.96h67.646h106.482h67.646h79.96   c6.725,0,12.178,5.468,12.178,12.193V239.971z"/><path d="M256,447.346c50.272,0,91.168-40.896,91.168-91.168S306.272,265.009,256,265.009s-91.168,40.896-91.168,91.168   S205.728,447.346,256,447.346z M256,277.414c43.426,0,78.748,35.337,78.748,78.763c0,43.426-35.322,78.748-78.748,78.748   s-78.763-35.322-78.763-78.748C177.237,312.751,212.574,277.414,256,277.414z"/><path d="M340.943,436.016c0,3.423,2.787,6.21,6.21,6.21h6.286c3.423,0,6.21-2.787,6.21-6.21c0-3.423-2.787-6.21-6.21-6.21h-6.286   C343.73,429.806,340.943,432.593,340.943,436.016z"/><path d="M376.886,442.226h55.422c3.423,0,6.21-2.787,6.21-6.21v-79.839c0-3.423-2.787-6.21-6.21-6.21   c-3.423,0-6.21,2.787-6.21,6.21v73.628h-49.212c-3.423,0-6.21,2.787-6.21,6.21C370.676,439.439,373.463,442.226,376.886,442.226z"/><path d="M159.167,442.226h6.286c3.423,0,6.203-2.787,6.203-6.21c0-3.423-2.779-6.21-6.203-6.21h-6.286   c-3.423,0-6.203,2.787-6.203,6.21C152.964,439.439,155.743,442.226,159.167,442.226z"/><path d="M80.297,442.226h55.422c3.423,0,6.203-2.787,6.203-6.21c0-3.423-2.779-6.21-6.203-6.21H86.5v-73.628   c0-3.423-2.779-6.21-6.203-6.21c-3.423,0-6.203,2.787-6.203,6.21v79.839C74.095,439.439,76.874,442.226,80.297,442.226z"/><path d="M257.16,379.827c-7.091,0-11.817-3.86-13.181-9.983h-16.832c0.923,11.464,8.814,19.813,22.521,21.903v9.561h14.216v-9.599   c13-1.953,21.737-9.393,21.737-22.779c0-12.648-6.665-19.802-24.397-24.746c-12.697-3.579-15.507-5.901-15.507-11.096   c0-3.662,2.167-8.155,9.79-8.155c9.079,0,10.617,5.335,11.468,8.634h16.847c-0.878-9.246-6.14-18.348-20.881-20.582v-7.627h-14.114   v7.796c-11.252,2.133-20.078,9.558-20.078,21.573c0,11.159,5.857,18.559,25.902,24.33c11.009,3.139,14.095,5.988,14.095,11.812   C268.744,375.619,265.939,379.827,257.16,379.827z"/></g></svg>