<svg xmlns="http://www.w3.org/2000/svg" data-name="Layer 1" viewBox="0 0 90 112.5" x="0px" y="0px"><path d="M77.905,21.373,72.263,25.7a1.239,1.239,0,0,0-.486.984V76.711a1.241,1.241,0,0,0,1.241,1.241H84.3a1.241,1.241,0,0,0,1.241-1.241V26.685a1.242,1.242,0,0,0-.486-.984l-5.643-4.328A1.241,1.241,0,0,0,77.905,21.373Zm5.158,54.1h-8.8V27.3l4.4-3.377,4.4,3.377ZM59.182,31.3a1.241,1.241,0,0,0-1.511,0L52.028,35.63a1.242,1.242,0,0,0-.486.985v40.1a1.241,1.241,0,0,0,1.241,1.241H64.069a1.241,1.241,0,0,0,1.241-1.241v-40.1a1.242,1.242,0,0,0-.485-.985ZM62.828,75.47h-8.8V37.227l4.4-3.376,4.4,3.376ZM38.947,43.236a1.242,1.242,0,0,0-1.51,0l-5.643,4.328a1.242,1.242,0,0,0-.486.985V76.711a1.241,1.241,0,0,0,1.241,1.241H43.835a1.241,1.241,0,0,0,1.241-1.241V48.549a1.242,1.242,0,0,0-.486-.985ZM42.594,75.47h-8.8V49.161l4.4-3.376,4.4,3.376ZM18.713,53.614a1.239,1.239,0,0,0-1.51,0L11.56,57.942a1.24,1.24,0,0,0-.486.985V76.711a1.241,1.241,0,0,0,1.241,1.241H23.6a1.241,1.241,0,0,0,1.241-1.241V58.927a1.242,1.242,0,0,0-.486-.985ZM22.36,75.47h-8.8V59.539l4.4-3.376,4.4,3.376ZM8.547,47.1A1.241,1.241,0,0,1,9.3,45.517c25.517-9.083,47.715-21.591,66.034-37.2l-3.942-.216a1.241,1.241,0,1,1,.136-2.478l7.009.384A1.24,1.24,0,0,1,79.7,7.4l-.855,6.939a1.243,1.243,0,0,1-1.231,1.089,1.144,1.144,0,0,1-.153-.01,1.24,1.24,0,0,1-1.08-1.383l.462-3.742C58.312,26.057,35.888,38.687,10.132,47.855A1.237,1.237,0,0,1,8.547,47.1ZM88.79,84.176a1.241,1.241,0,0,1-1.241,1.241H2.451A1.241,1.241,0,0,1,1.21,84.176V5.824a1.241,1.241,0,0,1,2.482,0V82.935H87.549A1.241,1.241,0,0,1,88.79,84.176ZM22.059,34.134A13.51,13.51,0,1,0,12.5,30.18,13.48,13.48,0,0,0,22.059,34.134ZM14.252,12.812a11.041,11.041,0,1,1-3.233,7.807A11.007,11.007,0,0,1,14.252,12.812Zm2.941,10.732a1.241,1.241,0,1,1,2.419-.556c.381,1.659,2.24,1.873,3.278,1.738a1.808,1.808,0,0,0,1.518-.963,1.029,1.029,0,0,0-.232-1.07c-.5-.6-1-.7-1.984-.848a9.042,9.042,0,0,1-1.834-.419l-.038-.015A3.79,3.79,0,0,1,17.7,17.886a3.908,3.908,0,0,1,2.674-3.541c.174-.065.349-.12.523-.166v-.905a1.241,1.241,0,1,1,2.482,0v.876a5.025,5.025,0,0,1,3.444,3.212,1.241,1.241,0,1,1-2.321.879,2.438,2.438,0,0,0-3.266-1.569,1.468,1.468,0,0,0-1.055,1.251c-.009.64.649,1.012,1.056,1.18a6.954,6.954,0,0,0,1.328.287,5.025,5.025,0,0,1,3.524,1.715,3.514,3.514,0,0,1,.635,3.564,4.17,4.17,0,0,1-3.345,2.492v.8a1.241,1.241,0,0,1-2.482,0v-.872A4.728,4.728,0,0,1,17.193,23.544Z"/><text x="0" y="105" fill="#000000" font-size="5px" font-weight="bold" font-family="'Helvetica Neue', Helvetica, Arial-Unicode, Arial, Sans-serif">Created by Andi wiyanto</text><text x="0" y="110" fill="#000000" font-size="5px" font-weight="bold" font-family="'Helvetica Neue', Helvetica, Arial-Unicode, Arial, Sans-serif">from the Noun Project</text></svg>