<svg xmlns="http://www.w3.org/2000/svg" viewBox="0 0 32 40" x="0px" y="0px"><path d="M28.95,11.11L17.82,2.63c-1.07-.81-2.57-.82-3.64,0L3.05,11.11c-.74,.56-1.18,1.45-1.18,2.38v13.49c0,1.66,1.35,3,3,3h6.64c.55,0,1-.44,1-1v-10.06c0-.55,.45-1,1-1h4.98c.55,0,1,.45,1,1v10.06c0,.56,.45,1,1,1h6.64c1.65,0,3-1.34,3-3V13.49c0-.93-.44-1.82-1.18-2.38Z"/><text x="0" y="47" fill="#000000" font-size="5px" font-weight="bold" font-family="'Helvetica Neue', Helvetica, Arial-Unicode, Arial, Sans-serif">Created by Kiki Rizky</text><text x="0" y="52" fill="#000000" font-size="5px" font-weight="bold" font-family="'Helvetica Neue', Helvetica, Arial-Unicode, Arial, Sans-serif">from the Noun Project</text></svg>