<svg xmlns="http://www.w3.org/2000/svg" data-name="Layer 2" viewBox="0 0 64 80" x="0px" y="0px"><path d="M46.97,30h0c-.55,0-1,.45-1,1l.03,23c0,1.1-.9,2-2,2H20c-1.1,0-2-.9-2-2V10c0-1.1,.9-2,2-2h17c.55,0,1-.45,1-1s-.45-1-1-1H20c-2.21,0-4,1.79-4,4V54c0,2.21,1.79,4,4,4h24c2.21,0,4-1.79,4-4l-.03-23c0-.55-.45-1-1-1Z"/><rect x="30" y="52" width="4" height="3" rx="1" ry="1"/><path d="M45,50c0-.55-.45-1-1-1H20c-.55,0-1,.45-1,1s.45,1,1,1h24c.55,0,1-.45,1-1Z"/><path d="M33,9h-2c-.55,0-1,.45-1,1s.45,1,1,1h2c.55,0,1-.45,1-1s-.45-1-1-1Z"/><path d="M47,5c-6.62,0-12,5.38-12,12s5.38,12,12,12,12-5.38,12-12-5.38-12-12-12Zm0,22c-5.51,0-10-4.49-10-10s4.49-10,10-10,10,4.49,10,10-4.49,10-10,10Z"/><path d="M46.5,13h3.5c.55,0,1-.45,1-1s-.45-1-1-1h-2v-1c0-.55-.45-1-1-1s-1,.45-1,1v1.05c-1.69,.25-3,1.69-3,3.45,0,1.93,1.57,3.5,3.5,3.5h1c.83,0,1.5,.67,1.5,1.5s-.67,1.5-1.5,1.5h-3.5c-.55,0-1,.45-1,1s.45,1,1,1h2v1c0,.55,.45,1,1,1s1-.45,1-1v-1.05c1.69-.25,3-1.69,3-3.45,0-1.93-1.57-3.5-3.5-3.5h-1c-.83,0-1.5-.67-1.5-1.5s.67-1.5,1.5-1.5Z"/><text x="0" y="79" fill="#000000" font-size="5px" font-weight="bold" font-family="'Helvetica Neue', Helvetica, Arial-Unicode, Arial, Sans-serif">Created by Fazrian Zahrawani</text><text x="0" y="84" fill="#000000" font-size="5px" font-weight="bold" font-family="'Helvetica Neue', Helvetica, Arial-Unicode, Arial, Sans-serif">from the Noun Project</text></svg>