<svg xmlns="http://www.w3.org/2000/svg" xmlns:xlink="http://www.w3.org/1999/xlink" version="1.1" x="0px" y="0px" viewBox="0 0 100 125" enable-background="new 0 0 100 100" xml:space="preserve"><path d="M45.8,57.023h-1.086V54.85h3.173v-2h-3.173v-1.504h-2v1.504h-1.087c-1.702,0-3.087,1.385-3.087,3.087  c0,1.702,1.385,3.086,3.087,3.086h1.087v2.174H39.54v2h3.174v1.504h2v-1.504H45.8c1.702,0,3.087-1.385,3.087-3.087  S47.502,57.023,45.8,57.023z M41.626,57.023c-0.599,0-1.087-0.487-1.087-1.086s0.488-1.087,1.087-1.087h1.087v2.173H41.626z   M45.8,61.197h-1.086v-2.174H45.8c0.599,0,1.087,0.488,1.087,1.087S46.399,61.197,45.8,61.197z M43.713,68.737  C37.806,68.737,33,63.931,33,58.023s4.806-10.713,10.713-10.713s10.713,4.806,10.713,10.713S49.621,68.737,43.713,68.737z   M43.713,49.311c-4.805,0-8.713,3.909-8.713,8.713c0,4.805,3.909,8.713,8.713,8.713c4.804,0,8.713-3.909,8.713-8.713  C52.426,53.219,48.518,49.311,43.713,49.311z M29.666,59.023H18.86v-2h10.806V59.023z M68.566,59.023H57.76v-2h10.806V59.023z   M92.934,38.591c0-9.4-7.647-17.047-17.047-17.047c-9.062,0-16.474,7.114-16.996,16.047H7.066v40.866H80.36V55.023  C87.593,53.05,92.934,46.441,92.934,38.591z M72.876,55.356v15.799H14.55V44.893h45.511C62.213,50.278,67.029,54.308,72.876,55.356z   M78.36,76.457H9.066V39.591H58.89c0.066,1.134,0.242,2.237,0.521,3.302H12.55v30.262h62.326V55.587  c0.336,0.02,0.669,0.051,1.01,0.051c0.842,0,1.664-0.082,2.474-0.2V76.457z M75.886,53.638c-8.297,0-15.047-6.75-15.047-15.047  s6.75-15.047,15.047-15.047c8.297,0,15.047,6.75,15.047,15.047S84.184,53.638,75.886,53.638z M73.754,45.364l-7.16-7.161  l1.414-1.414l5.746,5.747l10.011-10.011l1.414,1.414L73.754,45.364z"/><text x="0" y="115" fill="#000000" font-size="5px" font-weight="bold" font-family="'Helvetica Neue', Helvetica, Arial-Unicode, Arial, Sans-serif">Created by Daisy</text><text x="0" y="120" fill="#000000" font-size="5px" font-weight="bold" font-family="'Helvetica Neue', Helvetica, Arial-Unicode, Arial, Sans-serif">from the Noun Project</text></svg>