<svg xmlns="http://www.w3.org/2000/svg" xmlns:xlink="http://www.w3.org/1999/xlink" version="1.1" x="0px" y="0px" viewBox="0 0 512 640" style="enable-background:new 0 0 512 512;" xml:space="preserve"><g><path d="M42.7,199.7c1.2,0.6,2.4,0.9,3.7,0.9c2.9,0,5.7-1.6,7.1-4.3c2.7-5.2,5.7-10.3,8.9-15.2c2.4-3.7,1.3-8.7-2.4-11.1   c-3.7-2.4-8.7-1.3-11.1,2.4c-3.4,5.3-6.7,10.9-9.6,16.5C37.3,192.8,38.8,197.7,42.7,199.7z"/><path d="M25.2,307.2c4.4-0.3,7.7-4.2,7.4-8.6c-0.4-4.8-0.6-9.7-0.6-14.6c0-1,0-2,0-3c0.1-4.4-3.5-8.1-7.9-8.1   c-4.4,0-8.1,3.5-8.1,7.9c0,1.1,0,2.2,0,3.3c0,5.3,0.2,10.6,0.6,15.8c0.3,4.2,3.8,7.4,8,7.4C24.8,307.2,25,307.2,25.2,307.2z"/><path d="M59.2,381.7c-2.3-3.8-7.2-5-11-2.7c-3.8,2.3-5,7.2-2.7,11c3.3,5.4,6.8,10.8,10.6,15.9c1.6,2.1,4,3.3,6.5,3.3   c1.6,0,3.3-0.5,4.7-1.5c3.6-2.6,4.3-7.6,1.7-11.2C65.5,391.7,62.2,386.7,59.2,381.7z"/><path d="M224.7,88.3c0.1,0,0.3,0,0.4,0c5.9-0.3,11.8-0.4,17.7-0.2c4.4,0.1,8.1-3.3,8.2-7.8c0.1-4.4-3.3-8.1-7.8-8.2   c-6.3-0.2-12.7-0.1-19,0.2c-4.4,0.2-7.8,4-7.6,8.4C217,85,220.5,88.3,224.7,88.3z"/><path d="M43.9,350c-2-5.5-3.9-11.1-5.4-16.8c-1.2-4.3-5.5-6.8-9.8-5.6c-4.3,1.2-6.8,5.5-5.6,9.8c1.7,6.1,3.6,12.2,5.8,18.2   c1.2,3.2,4.3,5.2,7.5,5.2c0.9,0,1.9-0.2,2.8-0.5C43.3,358.8,45.4,354.2,43.9,350z"/><path d="M78.2,155.8c2.1,0,4.3-0.9,5.8-2.5c4-4.3,8.2-8.4,12.6-12.4c3.3-3,3.6-8,0.6-11.3c-3-3.3-8-3.6-11.3-0.6   c-4.7,4.2-9.3,8.7-13.6,13.3c-3,3.2-2.8,8.3,0.4,11.3C74.3,155.1,76.3,155.8,78.2,155.8z"/><path d="M170.6,98c0.8,0,1.6-0.1,2.4-0.4c5.6-1.8,11.3-3.3,17.1-4.6c4.3-1,7-5.2,6.1-9.5c-1-4.3-5.2-7-9.5-6.1   c-6.2,1.4-12.4,3-18.4,4.9c-4.2,1.3-6.6,5.8-5.2,10C164.1,95.8,167.2,98,170.6,98z"/><path d="M120.7,120.9c1.4,0,2.9-0.4,4.2-1.2c5-3.1,10.1-6,15.4-8.7c3.9-2,5.5-6.8,3.5-10.8c-2-3.9-6.8-5.5-10.8-3.5   c-5.6,2.9-11.2,6-16.6,9.4c-3.7,2.3-4.9,7.3-2.5,11C115.4,119.6,118,120.9,120.7,120.9z"/><path d="M26.4,252.2c0.5,0.1,1.1,0.2,1.6,0.2c3.7,0,7.1-2.6,7.8-6.4c1.2-5.7,2.6-11.5,4.3-17.1c1.3-4.2-1.1-8.7-5.3-10   c-4.2-1.3-8.7,1.1-10,5.3c-1.9,6.1-3.4,12.3-4.7,18.5C19.3,247.1,22.1,251.3,26.4,252.2z"/><path d="M404.6,408.9c-3.3-2.9-8.4-2.6-11.3,0.8c-3.8,4.4-7.9,8.7-12.2,12.8c-3.2,3.1-3.3,8.1-0.2,11.3c1.6,1.6,3.7,2.5,5.8,2.5   c2,0,4-0.7,5.5-2.2c4.6-4.4,9-9,13.2-13.8C408.2,416.9,407.9,411.8,404.6,408.9z"/><path d="M353.6,444.6c-4.9,3.3-9.9,6.4-15.1,9.2c-3.9,2.1-5.3,7-3.1,10.9c1.5,2.6,4.2,4.1,7,4.1c1.3,0,2.6-0.3,3.9-1   c5.5-3.1,11-6.4,16.2-9.9c3.7-2.5,4.6-7.4,2.2-11.1C362.2,443.1,357.3,442.2,353.6,444.6z"/><path d="M433,361.9c-4-1.9-8.8-0.2-10.7,3.8c-2.5,5.3-5.3,10.5-8.3,15.5c-2.3,3.8-1,8.7,2.8,11c1.3,0.8,2.7,1.1,4.1,1.1   c2.7,0,5.4-1.4,6.9-3.9c3.3-5.5,6.3-11.1,9-16.8C438.7,368.5,437,363.8,433,361.9z"/><path d="M447.4,308.8c-4.4-0.7-8.5,2.2-9.2,6.6c-1,5.8-2.2,11.6-3.7,17.2c-1.1,4.3,1.4,8.7,5.7,9.8c0.7,0.2,1.4,0.3,2.1,0.3   c3.5,0,6.8-2.4,7.7-5.9c1.6-6.1,3-12.4,4-18.7C454.7,313.7,451.8,309.6,447.4,308.8z"/><path d="M446.7,253.8c-4.4,0.5-7.5,4.5-7.1,8.8c0.7,5.8,1,11.7,1.2,17.6c0.1,4.4,3.6,7.8,8,7.8c0.1,0,0.1,0,0.2,0   c4.4-0.1,7.9-3.7,7.8-8.2c-0.1-6.4-0.5-12.8-1.3-19.1C455.1,256.5,451.1,253.4,446.7,253.8z"/><path d="M306.3,468.3c-5.5,1.9-11.2,3.6-16.9,5.1c-4.3,1.1-6.9,5.5-5.8,9.7c0.9,3.6,4.2,6,7.7,6c0.7,0,1.3-0.1,2-0.3   c6.1-1.6,12.3-3.4,18.2-5.5c4.2-1.5,6.4-6,4.9-10.2C315,469,310.4,466.8,306.3,468.3z"/><path d="M150.8,462c-5.4-2.4-10.7-5-15.9-7.8c-3.9-2.1-8.7-0.7-10.9,3.2c-2.1,3.9-0.7,8.7,3.2,10.9c5.5,3,11.3,5.9,17.1,8.5   c1.1,0.5,2.2,0.7,3.2,0.7c3.1,0,6-1.8,7.3-4.8C156.6,468.5,154.8,463.8,150.8,462z"/><path d="M201.5,477.2c-5.8-1-11.6-2.2-17.3-3.6c-4.3-1.1-8.6,1.5-9.7,5.8c-1.1,4.3,1.5,8.6,5.8,9.7c6.1,1.5,12.4,2.9,18.6,3.9   c0.4,0.1,0.9,0.1,1.3,0.1c3.8,0,7.2-2.8,7.9-6.7C208.8,482,205.9,477.9,201.5,477.2z"/><path d="M254.5,479.2c-5.8,0.5-11.8,0.7-17.7,0.8c-4.4,0-8,3.6-8,8c0,4.4,3.6,8,8,8c0,0,0,0,0,0c6.3,0,12.7-0.3,19-0.8   c4.4-0.4,7.7-4.2,7.3-8.6C262.7,482.1,258.9,478.9,254.5,479.2z"/><path d="M105.5,434.6c-4.6-3.7-9.1-7.6-13.3-11.6c-3.2-3-8.3-2.9-11.3,0.3s-2.9,8.3,0.3,11.3c4.6,4.4,9.4,8.6,14.4,12.5   c1.5,1.2,3.2,1.8,5,1.8c2.3,0,4.7-1,6.3-3C109.5,442.4,109,437.3,105.5,434.6z"/><path d="M236.4,199.1c22.3,0,40.4,17.2,40.4,38.5c0,4.4,3.6,8,8,8s8-3.6,8-8c0-27.4-21.1-50.1-48.4-53.9l0-15.8c0-4.4-3.6-8-8-8   c-4.4,0-8,3.6-8,8l0,15.8c-27.3,3.8-48.4,26.5-48.4,53.9v6.6c0,23,16.9,43.2,40.2,48l29.2,6c15.9,3.3,27.4,16.8,27.4,32.3   c0,21.2-18.1,38.5-40.4,38.5c-22.3,0-40.4-17.2-40.4-38.5c0-4.4-3.6-8-8-8s-8,3.6-8,8c0,27.4,21.1,50.1,48.4,53.9l0,15.8   c0,4.4,3.6,8,8,8c4.4,0,8-3.6,8-8l0-15.8c27.3-3.8,48.4-26.5,48.4-53.9c0-23-16.9-43.2-40.2-48l-29.2-6   c-15.9-3.3-27.4-16.8-27.4-32.3v-6.6C196.1,216.3,214.2,199.1,236.4,199.1z"/><path d="M425.6,103.5V74.8h7.3c4.4,0,8-3.6,8-8s-3.6-8-8-8h-15.3h-67.3h-15.3c-4.4,0-8,3.6-8,8s3.6,8,8,8h7.3v28.7   c0,2.6,1.2,5,3.3,6.5l24.8,18l-24.8,18c-2.1,1.5-3.3,3.9-3.3,6.5v28.7h-7.3c-4.4,0-8,3.6-8,8s3.6,8,8,8h15.3h67.3h15.3   c4.4,0,8-3.6,8-8s-3.6-8-8-8h-7.3v-28.7c0-2.6-1.2-5-3.3-6.5l-24.8-18l24.8-18C424.4,108.5,425.6,106.1,425.6,103.5z M358.4,181.2   v-8.5h51.3v8.5H358.4z M409.6,156.7h-51.3v-0.2l25.6-18.7l25.6,18.7V156.7z M409.6,99.5L384,118.1l-25.6-18.7V74.8h51.3V99.5z"/><path d="M384,16c-43.4,0-81.1,24.8-99.7,61c-0.9-0.2-1.8-0.4-2.8-0.6c-4.3-0.9-8.5,1.9-9.4,6.3c-0.8,4.2,1.8,8.2,5.8,9.3   c-3.1,9.1-5.1,18.8-5.7,28.9c-11.7-2.4-23.7-3.6-35.8-3.6c-95.5,0-173.3,74.8-173.3,166.7s77.7,166.7,173.3,166.7   c95.5,0,173.3-74.8,173.3-166.7c0-15.5-2.2-30.9-6.6-45.6c10.4-1.8,20.4-5,29.6-9.5c1.2,3.1,4.2,5,7.4,5c0.8,0,1.6-0.1,2.4-0.4   c4.2-1.3,6.6-5.8,5.3-10c-0.3-0.9-0.6-1.9-0.9-2.8c29.7-20.2,49.2-54.2,49.2-92.7C496,66.2,445.8,16,384,16z M393.7,284   c0,83.1-70.5,150.7-157.3,150.7c-86.7,0-157.3-67.6-157.3-150.7s70.5-150.7,157.3-150.7c12.2,0,24.2,1.3,36,4   c4.7,57.4,53,102.7,111.6,102.7c1,0,1.9,0,2.9,0C391.4,254.2,393.7,269,393.7,284z M384,224c-52.9,0-96-43.1-96-96s43.1-96,96-96   s96,43.1,96,96S436.9,224,384,224z"/></g><text x="0" y="527" fill="#000000" font-size="5px" font-weight="bold" font-family="'Helvetica Neue', Helvetica, Arial-Unicode, Arial, Sans-serif">Created by Puchongart</text><text x="0" y="532" fill="#000000" font-size="5px" font-weight="bold" font-family="'Helvetica Neue', Helvetica, Arial-Unicode, Arial, Sans-serif">from the Noun Project</text></svg>