<svg xmlns="http://www.w3.org/2000/svg" xmlns:xlink="http://www.w3.org/1999/xlink" xml:space="preserve" version="1.1" style="shape-rendering:geometricPrecision;text-rendering:geometricPrecision;image-rendering:optimizeQuality;" viewBox="0 0 846.66 1058.325" x="0px" y="0px" fill-rule="evenodd" clip-rule="evenodd"><defs>
</defs><g><path class="fil0" d="M175.8 166.76l0 64.02c165.02,0 330.04,0 495.06,0l0 -64.02 -495.06 0zm478.28 100.03l0 25.03 83.06 0 0 -189.43 -627.62 0 0 189.43 83.07 0 0 -25.03 -52.79 0 0 -136.03 567.06 0 0 136.03 -52.78 0zm-36.01 0l-389.48 0 0 61.04 0 416.45 389.48 0 0 -416.45 0 -61.04zm-208.5 94.85l0.19 0 27.46 0c3.98,0 7.21,3.23 7.21,7.2l0 0.19 0 25.88c36.11,5.52 60.05,28.12 61.35,65.69 0.05,1.45 -1.16,2.83 -2.65,2.83l-42.77 1.47c-1.42,0.05 -2.63,-1.01 -2.8,-2.39 -1.51,-9.01 -4.9,-18.5 -13.13,-23.42l0 40.66c38.43,10.3 67.55,25.5 67.55,69.92 0,40.95 -31.18,62.53 -67.55,66.92l0 25.63c0,3.97 -3.23,7.2 -7.21,7.2l-27.65 0c-3.97,0 -7.2,-3.23 -7.2,-7.2l0 -26.14c-41.64,-6.55 -62.77,-33.15 -67.52,-73.07 -0.17,-1.49 0.9,-2.87 2.4,-3.04l41.64 -4.13c1.43,-0.13 2.72,0.85 2.96,2.24 2.44,13.55 7.76,26.62 20.52,33.28l0 -52.55c-31.79,-9.36 -59.58,-26.12 -59.58,-63.62 0,-35.04 27.12,-55.18 59.58,-60.44l0 -25.91c0,-3.97 3.23,-7.2 7.2,-7.2zm34.86 168.5l0 43.38c10.26,-3.47 19.29,-12.19 19.29,-23.6 0,-12.15 -9.48,-16.48 -19.29,-19.78zm-42.06 -62.51l0 -30.39c-7.04,2.62 -13.39,6.87 -13.39,15.1 0,8.3 6.68,12.38 13.39,15.29z"/></g><text x="0" y="861.66" fill="#000000" font-size="5px" font-weight="bold" font-family="'Helvetica Neue', Helvetica, Arial-Unicode, Arial, Sans-serif">Created by Satryo Std</text><text x="0" y="866.66" fill="#000000" font-size="5px" font-weight="bold" font-family="'Helvetica Neue', Helvetica, Arial-Unicode, Arial, Sans-serif">from the Noun Project</text></svg>