<svg xmlns="http://www.w3.org/2000/svg" viewBox="0 0 24 30" fill="none" x="0px" y="0px"><path fill-rule="evenodd" clip-rule="evenodd" d="M4 7C4 6.44772 4.44772 6 5 6H19C19.5523 6 20 6.44772 20 7C20 7.55228 19.5523 8 19 8H5C4.44772 8 4 7.55228 4 7ZM4 11.6C4 11.0477 4.44772 10.6 5 10.6H19C19.5523 10.6 20 11.0477 20 11.6C20 12.1523 19.5523 12.6 19 12.6H5C4.44772 12.6 4 12.1523 4 11.6ZM4 16.2C4 15.6477 4.44772 15.2 5 15.2H19C19.5523 15.2 20 15.6477 20 16.2C20 16.7523 19.5523 17.2 19 17.2H5C4.44772 17.2 4 16.7523 4 16.2Z" fill="black"/><text x="0" y="39" fill="#000000" font-size="5px" font-weight="bold" font-family="'Helvetica Neue', Helvetica, Arial-Unicode, Arial, Sans-serif">Created by Marquet</text><text x="0" y="44" fill="#000000" font-size="5px" font-weight="bold" font-family="'Helvetica Neue', Helvetica, Arial-Unicode, Arial, Sans-serif">from the Noun Project</text></svg>