<svg xmlns="http://www.w3.org/2000/svg" viewBox="0 0 64 80" x="0px" y="0px"><g data-name="Layer 31"><path d="M60,2.5H4A1.5,1.5,0,0,0,2.5,4V20.29A1.5,1.5,0,0,0,4,21.79h7.93V56a5.51,5.51,0,0,0,5.5,5.5H46.57a5.51,5.51,0,0,0,5.5-5.5V21.79H60a1.5,1.5,0,0,0,1.5-1.5V4A1.5,1.5,0,0,0,60,2.5ZM41.14,45l-8.08,8.08a1.5,1.5,0,0,1-2.13,0L22.86,45A1.5,1.5,0,0,1,25,42.86l5.52,5.52V26.29a1.5,1.5,0,0,1,3,0V48.38L39,42.86a1.49,1.49,0,0,1,2.12,0,1.5,1.5,0,0,1,0,2.12ZM58.5,18.79H52.07V12a1.5,1.5,0,0,0-1.5-1.5H13.43a1.5,1.5,0,0,0-1.5,1.5v6.79H5.5V5.5h53Z"/></g></svg>