<svg xmlns="http://www.w3.org/2000/svg" xmlns:xlink="http://www.w3.org/1999/xlink" xmlns:xodm="http://www.corel.com/coreldraw/odm/2003" xml:space="preserve" version="1.1" style="shape-rendering:geometricPrecision;text-rendering:geometricPrecision;image-rendering:optimizeQuality;" viewBox="0 0 846.66 1058.325" x="0px" y="0px" fill-rule="evenodd" clip-rule="evenodd"><defs>
  </style></defs><g><path class="fil0" d="M687.68 298.15l45.95 -59.33c-62.96,-105.69 -178.34,-176.5 -310.3,-176.5 -199.38,0 -361.01,161.63 -361.01,361.01l-41.16 0 75.43 116.54 75.42 -116.54 -41.15 0c0,-161.52 130.94,-292.47 292.47,-292.47 116.72,0 217.45,68.39 264.35,167.29zm-264.35 -97.53c122.99,0 222.7,99.71 222.7,222.71 0,123 -99.71,222.71 -222.7,222.71 -123,0 -222.71,-99.71 -222.71,-222.71 0,-123 99.71,-222.71 222.71,-222.71zm-41.03 283.52c0,11.39 4.57,21.66 11.94,29.02 7.44,7.45 17.71,12.02 29.09,12.02 11.33,0 21.6,-4.61 29.02,-12.02 7.41,-7.4 12,-17.68 12,-29.02 0,-11.36 -4.58,-21.64 -11.97,-29.06 -7.4,-7.39 -17.69,-11.97 -29.05,-11.97 -22.17,0 -42.28,-9.04 -56.9,-23.62 -14.66,-14.69 -23.7,-34.81 -23.7,-56.97 0,-22.23 9.04,-42.4 23.62,-56.98 10.11,-10.12 22.89,-17.53 37.2,-21.15l0 -15.97 39.56 0 0 15.97c14.26,3.62 27.02,11.04 37.13,21.15 14.64,14.66 23.69,34.79 23.69,56.98l-39.58 0c0,-11.37 -4.58,-21.66 -11.97,-29.07 -7.4,-7.37 -17.69,-11.97 -29.05,-11.97 -11.34,0 -21.61,4.61 -29.02,12 -7.42,7.42 -12.01,17.7 -12.01,29.04 0,11.38 4.57,21.64 11.94,29.02 7.44,7.44 17.71,12.01 29.09,12.01 22.18,0 42.31,9.04 56.91,23.61 14.64,14.67 23.69,34.79 23.69,56.98 0,22.23 -9.05,42.4 -23.62,56.97 -10.11,10.13 -22.91,17.56 -37.2,21.17l0 15.96 -39.56 0 0 -15.98c-14.25,-3.62 -27,-11.03 -37.12,-21.15 -14.66,-14.68 -23.7,-34.81 -23.7,-56.97l39.57 0zm-267.59 126.52l45.6 -59.33c47.46,97.38 147.4,164.47 263.02,164.47 161.52,0 292.47,-130.95 292.47,-292.47l-41.17 0 75.44 -116.54 75.42 116.54 -41.16 0c0,199.38 -161.62,361.01 -361,361.01 -130.78,0 -245.29,-69.56 -308.62,-173.68z"/></g></svg>