<svg xmlns="http://www.w3.org/2000/svg" xmlns:xlink="http://www.w3.org/1999/xlink" xmlns:xodm="http://www.corel.com/coreldraw/odm/2003" xml:space="preserve" version="1.1" style="shape-rendering:geometricPrecision;text-rendering:geometricPrecision;image-rendering:optimizeQuality;" viewBox="0 0 846.66 1058.325" x="0px" y="0px" fill-rule="evenodd" clip-rule="evenodd"><defs></defs><g><path class="fil0" d="M527.25 648.28c10.45,11.95 -1.54,36.06 -12,24.1l-206.39 -237.01c-5.37,-6.14 -5.22,-18.33 0.13,-24.24l206.26 -236.85c10.46,-11.96 22.45,12.15 12,24.1l-195.9 224.95 195.9 224.95zm150.93 -163.1c43.76,0 79.24,35.48 79.24,79.24 0,43.75 -35.49,79.23 -79.24,79.23 -43.75,0 -79.24,-35.48 -79.24,-79.23 0,-43.76 35.48,-79.24 79.24,-79.24zm0 -417.96c43.76,0 79.24,35.48 79.24,79.24 0,43.75 -35.49,79.23 -79.24,79.23 -43.75,0 -79.24,-35.48 -79.24,-79.23 0,-43.76 35.48,-79.24 79.24,-79.24zm122.48 274.68c-1.14,-46.82 -39.83,-84.6 -86.69,-84.6l-71.58 0c-46.86,0 -85.55,37.78 -86.7,84.6 121.01,0 178.96,0 244.97,0zm-158.27 -104.17l71.58 0c58.48,0 106.29,47.81 106.29,106.29l0 7.67c0,5.4 -4.38,9.79 -9.79,9.79l-264.59 0c-5.4,0 -9.79,-4.39 -9.79,-9.79l0 -7.67c0,-58.49 47.82,-106.29 106.3,-106.29zm35.79 -150.93c-32.95,0 -59.66,26.7 -59.66,59.66 0,32.94 26.71,59.65 59.66,59.65 32.95,0 59.66,-26.71 59.66,-59.65 0,-32.96 -26.71,-59.66 -59.66,-59.66zm122.48 673.06c-1.14,-46.82 -39.83,-84.59 -86.69,-84.59l-71.58 0c-46.86,0 -85.55,37.77 -86.7,84.59 121.01,0 178.96,0 244.97,0zm-158.27 -104.17l71.58 0c58.48,0 106.29,47.81 106.29,106.29l0 7.67c0,5.4 -4.38,9.79 -9.79,9.79l-264.59 0c-5.4,0 -9.79,-4.39 -9.79,-9.79l0 -7.67c0,-58.48 47.82,-106.29 106.3,-106.29zm35.79 -150.93c-32.95,0 -59.66,26.71 -59.66,59.66 0,32.95 26.71,59.65 59.66,59.65 32.95,0 59.66,-26.7 59.66,-59.65 0,-32.95 -26.71,-59.66 -59.66,-59.66zm-509.69 -228.56c43.76,0 79.24,35.48 79.24,79.24 0,43.75 -35.49,79.23 -79.24,79.23 -43.75,0 -79.24,-35.48 -79.24,-79.23 0,-43.76 35.48,-79.24 79.24,-79.24zm-35.79 170.51l71.58 0c58.48,0 106.29,47.81 106.29,106.29l0 7.67c0,5.4 -4.38,9.79 -9.79,9.79l-264.59 0c-5.4,0 -9.79,-4.39 -9.79,-9.79l0 -7.67c0,-58.48 47.82,-106.29 106.3,-106.29z"/></g></svg>