<svg xmlns="http://www.w3.org/2000/svg" xmlns:xlink="http://www.w3.org/1999/xlink" xml:space="preserve" version="1.1" style="shape-rendering:geometricPrecision;text-rendering:geometricPrecision;image-rendering:optimizeQuality;" viewBox="0 0 846.66 1058.325" x="0px" y="0px" fill-rule="evenodd" clip-rule="evenodd"><defs></defs><g><path class="fil0" d="M58.44 189.68c243.25,0 486.52,0 729.77,0l0 -26.45 -729.77 0 0 26.45zm355.05 130.8l19.67 0 0 20.24c25.09,3.01 44.38,17.4 45.45,44.26l-19.1 1.47c-1.72,-16.19 -10.46,-25.48 -26.35,-28l0 47.95c24.07,5.91 49.86,14.19 49.86,44.04 0,27.66 -24.78,43.03 -49.86,44.71l0 19.79 -19.67 0 0 -20.41c-27.92,-3.41 -49.02,-20.18 -49.85,-49.96l18.67 -1.68c2.23,19.21 12.57,29.51 31.18,33.49l0 -54.24c-21.52,-5.59 -44.18,-14.25 -44.18,-40.59 0,-25.34 21.34,-38.61 44.18,-41.02l0 -20.05zm19.67 106.57l0 50.36c14.22,-1.34 30.76,-8.73 30.76,-25.29 0,-17.17 -17.31,-21.52 -30.76,-25.07zm-19.67 -25.42l0 -43.39c-12.21,1.5 -25.1,8 -25.1,22.02 0,14.56 13.48,18.17 25.1,21.37zm155.77 -193.95l0 377.71 -9 0c-28.39,0 -51.34,22.96 -51.34,51.34l0 9 -171.14 0 -0.01 -9c0,-28.32 -23.06,-51.34 -51.38,-51.34l-9 0 0 -377.71 -39.54 0 0 55.68 0 9 0 411.08 370.96 0c0,-158.58 0,-317.17 0,-475.76l-39.55 0zm-273.87 0l0 360.29c31.13,4.04 55.69,28.64 59.72,59.76l136.39 0c4.03,-31.07 28.69,-55.72 59.76,-59.76l0 -360.29 -255.87 0zm-236.95 46.68l161.41 0 0 -46.68 -161.41 0 0 46.68zm568.37 0l161.4 0 0 -46.68 -161.4 0 0 46.68zm-406.96 18l-179.41 0c0,-42.37 0,-84.75 0,-127.13l765.77 0c0,42.38 0,84.76 0,127.13l-179.4 0 0 429.08 -406.96 0 0 -429.08z"/></g></svg>