<svg xmlns="http://www.w3.org/2000/svg" xmlns:svg="http://www.w3.org/2000/svg" viewBox="0 0 14.287499 17.85937375" version="1.1" x="0px" y="0px"><path style="color:#000000;" d="M 5.9531301,1.1906251 C 5.8070113,1.190641 5.6885626,1.3090896 5.6885468,1.4552084 V 2.7729577 C 5.4818358,2.8437046 5.2811837,2.9290486 5.0865165,3.0282382 L 4.1506563,2.092378 c -0.1033278,-0.1032828 -0.270809,-0.1032828 -0.3741367,0 L 2.092386,3.7759956 C 1.9889551,3.8791778 1.9887169,4.0466591 2.0918568,4.150135 L 3.0277171,5.0859952 C 2.9284851,5.2808185 2.8431808,5.4816584 2.7724365,5.6885414 H 1.4552032 C 1.3090844,5.6885546 1.1906358,5.8070059 1.1906199,5.9531247 v 2.3812498 c 1.59e-5,0.1461188 0.1184645,0.2645701 0.2645833,0.2645833 h 1.3172333 c 0.070744,0.206883 0.1560486,0.4077202 0.2552806,0.6025462 l -0.9358603,0.93586 c -0.1031399,0.103474 -0.1029017,0.270958 5.292e-4,0.37414 l 1.6841336,1.683618 c 0.1033277,0.103282 0.2708089,0.103282 0.3741367,0 l 0.9358602,-0.935861 c 0.1946672,0.09919 0.3953193,0.184534 0.6020303,0.255281 v 1.317749 c 1.58e-5,0.146119 0.1184645,0.26457 0.2645833,0.264583 h 2.3812498 c 0.1461187,-1.3e-5 0.2645674,-0.118464 0.2645833,-0.264583 v -1.317749 c 0.2067216,-0.07072 0.40735,-0.156118 0.60203,-0.255281 l 0.9358598,0.935861 c 0.103386,0.103629 0.27127,0.103629 0.374656,0 l 1.683617,-1.683618 c 0.103286,-0.103328 0.103286,-0.270812 0,-0.37414 l -0.93586,-0.93586 c 0.09923,-0.194826 0.184544,-0.3956632 0.255281,-0.6025462 h 1.317749 c 0.146119,-1.32e-5 0.264567,-0.1184645 0.264583,-0.2645833 V 5.9531247 C 13.096863,5.8070059 12.978415,5.6885546 12.832296,5.6885414 H 11.517132 C 11.447589,5.4798275 11.363425,5.2770323 11.264949,5.0803093 L 12.195126,4.150135 c 0.103286,-0.1033278 0.103286,-0.2708116 0,-0.3741394 L 10.511509,2.092378 c -0.103386,-0.1036294 -0.27127,-0.1036294 -0.374656,0 L 9.2066792,3.022555 C 9.0101392,2.9241697 8.8074733,2.8398787 8.5989632,2.7703727 V 1.4552084 C 8.5989473,1.3090896 8.4804986,1.190641 8.3343799,1.1906251 Z M 7.143755,4.1010415 c 1.6773073,0 3.042708,1.3654034 3.042708,3.0427081 0,1.6773047 -1.3654007,3.0427084 -3.042708,3.0427084 -1.6773048,0 -3.0427081,-1.3654037 -3.0427081,-3.0427084 0,-1.6773047 1.3654033,-3.0427081 3.0427081,-3.0427081 z m 0,0.5291667 c -1.391322,0 -2.5135415,1.1222195 -2.5135415,2.5135414 0,1.3913219 1.1222195,2.5135414 2.5135415,2.5135414 1.3913245,0 2.5135412,-1.1222195 2.5135412,-2.5135414 0,-1.3913219 -1.1222167,-2.5135414 -2.5135412,-2.5135414 z m 0,0.8412929 c 0.146124,0 0.2645833,0.1184566 0.2645833,0.2645833 V 5.940721 h 0.4392506 c 0.1461241,0 0.2645833,0.1184593 0.2645833,0.2645833 0,0.1461268 -0.1184592,0.2645834 -0.2645833,0.2645834 H 6.7913221 c -0.1179698,0 -0.2046394,0.086672 -0.2046394,0.2046393 0,0.1179697 0.08667,0.2046393 0.2046394,0.2046393 0.2347832,0 0.4695665,0 0.7043498,0 0.4019735,0 0.733806,0.3318324 0.733806,0.7338059 0,0.4019735 -0.3318325,0.7338033 -0.733806,0.7338033 h -0.087334 v 0.2046393 c 0,0.1461267 -0.1184593,0.2645833 -0.2645833,0.2645833 -0.1461241,0 -0.2645833,-0.1184566 -0.2645833,-0.2645833 V 8.3467755 H 6.4394051 c -0.1461241,0 -0.2645833,-0.1184566 -0.2645833,-0.2645833 0,-0.1461241 0.1184592,-0.2645833 0.2645833,-0.2645833 h 1.0562668 c 0.1179698,0 0.2046393,-0.08667 0.2046393,-0.2046367 0,-0.1179697 -0.08667,-0.2046393 -0.2046393,-0.2046393 -0.2347833,0 -0.4695666,0 -0.7043498,0 -0.4019735,0 -0.733806,-0.3318324 -0.733806,-0.7338059 0,-0.4019735 0.3318325,-0.733806 0.733806,-0.733806 h 0.08785 V 5.7360844 c 0,-0.1461267 0.1184592,-0.2645833 0.2645829,-0.2645833 z" fill="#000000" stroke="none"/></svg>